<svg xmlns="http://www.w3.org/2000/svg" xmlns:xlink="http://www.w3.org/1999/xlink" width="19" height="19" viewBox="0 0 19 19"><defs><path id="hc18a" d="M113.94 727.12a3.1 3.1 0 0 0-.94 2.27c0 .9.32 1.65.95 2.27l1.64 1.63c.62.62 1.37.92 2.26.92.9 0 1.66-.31 2.28-.94l2.3-2.31c.62-.62.93-1.38.93-2.27 0-.92-.33-1.7-.98-2.33l.98-.98c.64.65 1.41.98 2.32.98.9 0 1.65-.32 2.28-.94l2.32-2.32a3.1 3.1 0 0 0 .93-2.28c0-.9-.31-1.65-.94-2.26l-1.64-1.63a3.08 3.08 0 0 0-2.27-.93c-.9 0-1.66.32-2.28.95l-2.3 2.3a3.08 3.08 0 0 0-.92 2.27c0 .92.32 1.7.98 2.34l-.98.98a3.13 3.13 0 0 0-2.32-.98c-.9 0-1.66.31-2.28.93zm9.04-5.6c0-.3.1-.55.31-.75l2.3-2.31a1.08 1.08 0 0 1 1.52-.01l1.65 1.62c.2.21.31.46.31.75 0 .3-.1.55-.31.76l-2.33 2.32c-.2.2-.45.3-.76.3s-.58-.11-.8-.34a31.08 31.08 0 0 1 .45-.45l.17-.21a.9.9 0 0 0 .18-.6c0-.29-.1-.54-.31-.75-.2-.21-.46-.31-.76-.31-.11 0-.21 0-.3.03a.9.9 0 0 0-.3.15 2.66 2.66 0 0 0-.45.4 31 31 0 0 1-.2.22c-.25-.23-.37-.5-.37-.82zm-7.84 7.87c0-.3.1-.55.32-.76l2.32-2.32c.2-.2.46-.31.76-.31s.58.12.8.36a30.82 30.82 0 0 1-.45.44l-.17.22a.9.9 0 0 0-.18.59c0 .3.1.55.3.76.22.2.47.3.77.3.1 0 .21 0 .3-.03a.9.9 0 0 0 .29-.15 2.66 2.66 0 0 0 .45-.4l.2-.21a1.08 1.08 0 0 1 .06 1.57l-2.3 2.3c-.2.21-.45.31-.76.31-.3 0-.55-.1-.75-.29l-1.64-1.63c-.21-.2-.32-.46-.32-.75z"/></defs><g><g transform="translate(-113 -716)"><use fill="#fff" xlink:href="#hc18a"/></g></g></svg>