<svg xmlns="http://www.w3.org/2000/svg" xmlns:xlink="http://www.w3.org/1999/xlink" width="720" height="31" viewBox="0 0 720 31"><defs><path id="mny0a" d="M24 1402a7 7 0 0 1 7-7h706a7 7 0 0 1 7 7v16.86a7 7 0 0 1-7 7H31a7 7 0 0 1-7-7z"/><path id="mny0b" d="M34.1 1410.43a4.21 4.21 0 1 1 8.42 0 4.21 4.21 0 0 1-8.42 0z"/><path id="mny0c" d="M47.01 1410.43a4.21 4.21 0 1 1 8.42 0 4.21 4.21 0 0 1-8.42 0z"/><path id="mny0d" d="M59.92 1410.43a4.21 4.21 0 1 1 8.42 0 4.21 4.21 0 0 1-8.42 0z"/><path id="mny0e" d="M78.43 1418.01v-15.15h657.71v15.15z"/></defs><g><g transform="translate(-24 -1395)"><g><use fill="#d3d3d3" xlink:href="#mny0a"/></g><g><use fill="#e96e4c" xlink:href="#mny0b"/></g><g><use fill="#e6a935" xlink:href="#mny0c"/></g><g><use fill="#85c33d" xlink:href="#mny0d"/></g><g opacity=".85"><use fill="#fff" xlink:href="#mny0e"/></g></g></g></svg>