<svg xmlns="http://www.w3.org/2000/svg" xmlns:xlink="http://www.w3.org/1999/xlink" width="1140" height="49" viewBox="0 0 1140 49"><defs><path id="ylbca" d="M113 1420a7 7 0 0 1 7-7h1126a7 7 0 0 1 7 7v34.87a7 7 0 0 1-7 7H120a7 7 0 0 1-7-7z"/><path id="ylbcb" d="M128.99 1437.43a6.66 6.66 0 1 1 13.33 0 6.66 6.66 0 0 1-13.33 0z"/><path id="ylbcc" d="M149.43 1437.43a6.66 6.66 0 1 1 13.33 0 6.66 6.66 0 0 1-13.33 0z"/><path id="ylbcd" d="M169.87 1437.43a6.66 6.66 0 1 1 13.33 0 6.66 6.66 0 0 1-13.33 0z"/><path id="ylbce" d="M199.19 1449.43v-23.99h1041.37v23.99z"/></defs><g><g transform="translate(-113 -1413)"><g><use fill="#d3d3d3" xlink:href="#ylbca"/></g><g><use fill="#e96e4c" xlink:href="#ylbcb"/></g><g><use fill="#e6a935" xlink:href="#ylbcc"/></g><g><use fill="#85c33d" xlink:href="#ylbcd"/></g><g opacity=".85"><use fill="#fff" xlink:href="#ylbce"/></g></g></g></svg>