<svg xmlns="http://www.w3.org/2000/svg" xmlns:xlink="http://www.w3.org/1999/xlink" viewBox="0 0 159 23">
    <path id="a" fill="#fff" d="M219.72 70.16l-3.79-6.26a7.3 7.3 0 0 1-.78.03h-4.95v6.23H206V49h9.15c2.84 0 5.03.63 6.57 1.9 1.55 1.27 2.32 3.07 2.32 5.38 0 1.66-.37 3.07-1.1 4.23a6.76 6.76 0 0 1-3.25 2.63l4.82 7.02zm-9.52-9.8h4.94c1.59 0 2.8-.34 3.63-1 .84-.67 1.25-1.65 1.25-2.96 0-1.29-.41-2.25-1.25-2.9-.83-.64-2.04-.96-3.63-.96h-4.94z"/>
    <path id="b" fill="#fff" d="M266.12 49.54c1.73.98 3.1 2.32 4.1 4.02.98 1.7 1.48 3.6 1.48 5.68a11.13 11.13 0 0 1-11.35 11.24c-2.1 0-4.03-.5-5.77-1.5a11.13 11.13 0 0 1-5.58-9.75c0-2.07.5-3.96 1.5-5.67.99-1.7 2.35-3.04 4.08-4.02a11.57 11.57 0 0 1 5.77-1.46c2.11 0 4.03.49 5.77 1.46m-9.33 3.26a7.41 7.41 0 0 0-3.62 6.43 7.43 7.43 0 0 0 3.64 6.48 6.87 6.87 0 0 0 7.16 0 7.6 7.6 0 0 0 3.56-6.48c0-1.37-.32-2.62-.96-3.75a7.16 7.16 0 0 0-6.16-3.66c-1.3 0-2.5.33-3.62.98"/>
    <path id="c" fill="#fff" d="M124.2 53.32l3.67 8.89h-7.4zM122.21 49L113 70.16h4.17l1.86-4.48h10.27l1.86 4.48h4.32L126.38 49z"/>
    <path id="d" fill="#fff" d="M174.33 49l-9.36 10.55V49H161v21.16h3.97v-5.41l3.26-3.66 6.51 9.07h4.77l-8.47-12.21 7.97-8.95z"/>
</svg>
