<svg width="46" height="46" viewBox="0 0 46 46" fill="none" xmlns="http://www.w3.org/2000/svg">
<path fill-rule="evenodd" clip-rule="evenodd" d="M23 0C10.3086 0 0 10.3086 0 23C0 35.6914 10.3086 46 23 46C35.6914 46 46 35.6914 46 23C46 10.3086 35.6914 0 23 0ZM23 2C34.6094 2 44 11.3906 44 23C44 34.6094 34.6094 44 23 44C11.3906 44 2 34.6094 2 23C2 11.3906 11.3906 2 23 2ZM18.2812 14.2812C18.4414 14.125 18.6523 14.0234 18.875 14C19.3086 13.9297 19.7422 14.1484 19.9336 14.5469C20.1289 14.9414 20.043 15.418 19.7188 15.7188L13.4375 22H35C35.3594 21.9961 35.6953 22.1836 35.8789 22.4961C36.0586 22.8086 36.0586 23.1914 35.8789 23.5039C35.6953 23.8164 35.3594 24.0039 35 24H13.4375L19.7188 30.2812C20.1172 30.6797 20.1172 31.3203 19.7188 31.7188C19.3203 32.1172 18.6797 32.1172 18.2812 31.7188L10.4688 23.875C10.3984 23.832 10.3359 23.7773 10.2812 23.7188L10.25 23.6875L10.2188 23.6562L10.1875 23.625C10.1758 23.6055 10.1641 23.582 10.1562 23.5625L10.125 23.5312C10.1133 23.5117 10.1016 23.4883 10.0938 23.4688C10.0273 23.3516 9.98438 23.2266 9.96875 23.0938V23.0625V23V22.9062V22.875C9.98828 22.7539 10.0312 22.6367 10.0938 22.5312V22.5C10.1133 22.4766 10.1328 22.457 10.1562 22.4375V22.4062C10.1758 22.3828 10.1953 22.3633 10.2188 22.3438C10.2383 22.3203 10.2578 22.3008 10.2812 22.2812V22.25C10.3008 22.2266 10.3203 22.207 10.3438 22.1875L10.4375 22.1562L18.2812 14.2812Z" fill="#00C6D7"/>
</svg>
